<svg xmlns="http://www.w3.org/2000/svg" width="32" height="32" viewBox="0 0 64 64" role="img" aria-label="backup favicon"><rect width="64" height="64" rx="14" fill="#0f172a"/><rect x="3" y="3" width="58" height="58" rx="12" fill="none" stroke="#35f27d" stroke-opacity=".38" stroke-width="2"/><circle cx="48" cy="14" r="18" fill="#35f27d" opacity=".08"/><path d="M32 10 50 18v13c0 13-8 21-18 25-10-4-18-12-18-25V18l18-8Z" fill="#35f27d" opacity=".16" stroke="#35f27d" stroke-width="3" stroke-linejoin="round"/>
<ellipse cx="32" cy="28" rx="11" ry="5" fill="#35f27d"/>
<path d="M21 28v13c0 3 5 6 11 6s11-3 11-6V28" fill="none" stroke="#14b85c" stroke-width="4"/>
<path d="M21 35c0 3 5 6 11 6s11-3 11-6" fill="none" stroke="#14b85c" stroke-width="3"/></svg>
